<?xml version="1.0" encoding="UTF-8" standalone="no"?><!DOCTYPE svg PUBLIC "-//W3C//DTD SVG 1.1//EN" "http://www.w3.org/Graphics/SVG/1.1/DTD/svg11.dtd"><svg width="100%" height="100%" viewBox="0 0 17 7" version="1.1" xmlns="http://www.w3.org/2000/svg" xmlns:xlink="http://www.w3.org/1999/xlink" xml:space="preserve" xmlns:serif="http://www.serif.com/" style="fill-rule:evenodd;clip-rule:evenodd;stroke-linejoin:round;stroke-miterlimit:2;"><g><g><g><path d="M1.495,3.227c-0,0.156 -0.046,0.277 -0.138,0.362c-0.092,0.085 -0.223,0.128 -0.393,0.128l-0.106,-0l0,0.463l-0.378,0l0,-1.397l0.484,-0c0.177,-0 0.309,0.038 0.398,0.115c0.089,0.077 0.133,0.187 0.133,0.329Zm-0.637,0.181l0.069,0c0.056,0 0.101,-0.016 0.135,-0.047c0.034,-0.032 0.051,-0.076 0.051,-0.132c-0,-0.094 -0.053,-0.142 -0.157,-0.142l-0.098,0l0,0.321Z" style="fill:#231f20;fill-rule:nonzero;"/></g></g><g><g><path d="M2.279,3.672l0,0.508l-0.378,0l0,-1.397l0.459,-0c0.38,-0 0.57,0.137 0.57,0.413c-0,0.161 -0.079,0.287 -0.237,0.375l0.407,0.609l-0.429,0l-0.296,-0.508l-0.096,-0Zm0,-0.285l0.071,0c0.132,0 0.198,-0.058 0.198,-0.174c0,-0.097 -0.065,-0.145 -0.194,-0.145l-0.075,-0l0,0.319Z" style="fill:#231f20;fill-rule:nonzero;"/></g></g><g><g><path d="M4.268,4.18l-0.068,-0.262l-0.454,0l-0.071,0.262l-0.415,0l0.456,-1.403l0.504,-0l0.461,1.403l-0.413,0Zm-0.147,-0.572l-0.06,-0.229c-0.014,-0.051 -0.031,-0.117 -0.052,-0.198c-0.02,-0.081 -0.033,-0.139 -0.039,-0.174c-0.005,0.033 -0.017,0.086 -0.034,0.161c-0.017,0.075 -0.054,0.221 -0.112,0.44l0.297,0Z" style="fill:#231f20;fill-rule:nonzero;"/></g></g><g><g><path d="M5.516,3.301l0.241,-0.518l0.409,-0l-0.46,0.852l0,0.545l-0.381,0l0,-0.534l-0.46,-0.863l0.412,-0l0.239,0.518Z" style="fill:#231f20;fill-rule:nonzero;"/></g></g><g><g><path d="M7.331,4.18l-0.831,0l0,-1.397l0.831,-0l-0,0.303l-0.453,-0l0,0.219l0.419,0l0,0.303l-0.419,0l0,0.265l0.453,-0l-0,0.307Z" style="fill:#231f20;fill-rule:nonzero;"/></g></g><g><g><path d="M8.137,3.672l-0,0.508l-0.378,0l-0,-1.397l0.458,-0c0.38,-0 0.57,0.137 0.57,0.413c0,0.161 -0.079,0.287 -0.237,0.375l0.407,0.609l-0.428,0l-0.297,-0.508l-0.095,-0Zm-0,-0.285l0.071,0c0.132,0 0.198,-0.058 0.198,-0.174c-0,-0.097 -0.065,-0.145 -0.195,-0.145l-0.074,-0l-0,0.319Z" style="fill:#231f20;fill-rule:nonzero;"/></g></g><g><g><path d="M10.183,3.756c-0,0.087 -0.022,0.164 -0.067,0.231c-0.044,0.067 -0.107,0.119 -0.19,0.157c-0.083,0.037 -0.18,0.056 -0.291,0.056c-0.093,-0 -0.172,-0.007 -0.235,-0.02c-0.063,-0.013 -0.129,-0.036 -0.197,-0.068l0,-0.337c0.072,0.037 0.147,0.066 0.225,0.087c0.078,0.02 0.149,0.03 0.214,0.03c0.056,0 0.097,-0.01 0.123,-0.029c0.027,-0.019 0.04,-0.044 0.04,-0.075c-0,-0.019 -0.005,-0.036 -0.016,-0.05c-0.01,-0.014 -0.027,-0.028 -0.05,-0.043c-0.024,-0.015 -0.086,-0.045 -0.186,-0.09c-0.092,-0.042 -0.16,-0.082 -0.206,-0.121c-0.046,-0.039 -0.079,-0.084 -0.101,-0.134c-0.022,-0.05 -0.033,-0.11 -0.033,-0.178c-0,-0.129 0.046,-0.23 0.14,-0.301c0.094,-0.072 0.223,-0.109 0.387,-0.109c0.145,0 0.292,0.034 0.443,0.1l-0.116,0.292c-0.131,-0.06 -0.244,-0.09 -0.339,-0.09c-0.049,0 -0.084,0.009 -0.107,0.026c-0.022,0.018 -0.033,0.039 -0.033,0.064c-0,0.028 0.014,0.053 0.042,0.074c0.029,0.022 0.106,0.061 0.231,0.118c0.12,0.055 0.204,0.113 0.251,0.175c0.047,0.062 0.071,0.14 0.071,0.235Z" style="fill:#231f20;fill-rule:nonzero;"/></g></g><g><g><path d="M11.45,3.91l-0.143,0l-0.057,0.27l-0.361,0l0.058,-0.27l-0.525,0l0.049,-0.245l0.728,-0.882l0.345,-0l-0.178,0.845l0.142,-0l-0.058,0.282Zm-0.445,-0.282l0.047,-0.186c0.019,-0.068 0.038,-0.135 0.058,-0.202l-0.009,0c-0.032,0.062 -0.069,0.117 -0.109,0.165l-0.186,0.223l0.199,-0Z" style="fill:#f68712;fill-rule:nonzero;"/></g></g><g><g><path d="M12.402,3.301l0.241,-0.518l0.409,-0l-0.46,0.852l0,0.545l-0.38,0l-0,-0.534l-0.46,-0.863l0.411,-0l0.239,0.518Z" style="fill:#231f20;fill-rule:nonzero;"/></g></g><g><g><path d="M14.695,3.479c-0,0.236 -0.058,0.415 -0.173,0.537c-0.115,0.123 -0.284,0.184 -0.507,0.184c-0.219,-0 -0.387,-0.062 -0.504,-0.185c-0.117,-0.123 -0.176,-0.302 -0.176,-0.537c0,-0.233 0.058,-0.411 0.175,-0.533c0.116,-0.123 0.285,-0.185 0.507,-0.185c0.222,0 0.391,0.061 0.505,0.183c0.115,0.122 0.173,0.3 0.173,0.536Zm-0.962,0c0,0.271 0.094,0.406 0.282,0.406c0.096,-0 0.167,-0.033 0.213,-0.099c0.047,-0.066 0.07,-0.168 0.07,-0.307c-0,-0.139 -0.024,-0.242 -0.071,-0.309c-0.047,-0.067 -0.117,-0.1 -0.21,-0.1c-0.189,0 -0.284,0.137 -0.284,0.409Z" style="fill:#231f20;fill-rule:nonzero;"/></g></g><g><g><path d="M16.32,2.783l-0,0.841c-0,0.183 -0.052,0.325 -0.156,0.425c-0.103,0.101 -0.252,0.151 -0.448,0.151c-0.19,-0 -0.337,-0.049 -0.439,-0.147c-0.102,-0.097 -0.153,-0.237 -0.153,-0.421l-0,-0.849l0.38,-0l-0,0.819c-0,0.1 0.018,0.171 0.055,0.216c0.037,0.045 0.091,0.067 0.163,0.067c0.078,-0 0.133,-0.022 0.168,-0.067c0.034,-0.044 0.052,-0.116 0.052,-0.217l-0,-0.818l0.378,-0Z" style="fill:#231f20;fill-rule:nonzero;"/></g></g></g></svg>