<?xml version="1.0" encoding="UTF-8" standalone="no"?><!DOCTYPE svg PUBLIC "-//W3C//DTD SVG 1.1//EN" "http://www.w3.org/Graphics/SVG/1.1/DTD/svg11.dtd"><svg width="100%" height="100%" viewBox="0 0 53 16" version="1.1" xmlns="http://www.w3.org/2000/svg" xmlns:xlink="http://www.w3.org/1999/xlink" xml:space="preserve" xmlns:serif="http://www.serif.com/" style="fill-rule:evenodd;clip-rule:evenodd;stroke-linejoin:round;stroke-miterlimit:2;"><g><path d="M26.487,6.241c-0.062,-0.063 -0.124,-0.128 -0.183,-0.194c0.059,0.066 0.121,0.131 0.183,0.194" style="fill:#40b93c;fill-rule:nonzero;"/><path d="M26.312,6.268c0.057,-0.081 0.114,-0.163 0.167,-0.248c-0.053,0.085 -0.11,0.167 -0.167,0.248" style="fill:#40b93c;fill-rule:nonzero;"/><path d="M26.594,5.895c-0.123,0.174 -0.255,0.341 -0.397,0.498c0.142,-0.157 0.274,-0.324 0.397,-0.498" style="fill:#40b93c;fill-rule:nonzero;"/><path d="M26.815,0.353c-3.1,-0 -5.613,2.514 -5.613,5.615c-0,1.442 0.543,2.756 1.436,3.75l1.495,-1.457l0.911,0.878l3.706,-4.862l2.804,4.699c0.553,-0.87 0.875,-1.901 0.875,-3.008c0,-3.101 -2.513,-5.615 -5.614,-5.615" style="fill:#f68712;fill-rule:nonzero;"/><path d="M28.75,4.277l-3.706,4.862l-0.911,-0.878l-1.495,1.457l-2.276,2.218l2.991,-1.35l0.075,-0.141l0.868,-1.615l1.495,1.935l1.561,-3.025l0.536,1.594l0.943,-3.886l2.158,4.275c0.209,-0.232 0.397,-0.482 0.565,-0.747l-2.804,-4.699" style="fill:#231f20;fill-rule:nonzero;"/><path d="M26.774,8.314l-0,-5.209l-0.708,0l-0,5.209l0.708,0" style="fill:#231f20;fill-rule:nonzero;"/><path d="M27.886,4.268l-2.983,0l-0,0.708l2.983,0l0,-0.708" style="fill:#231f20;fill-rule:nonzero;"/><g><g><path d="M18.007,13.585c-0,0.19 -0.056,0.336 -0.168,0.44c-0.112,0.103 -0.271,0.155 -0.478,0.155l-0.129,-0l0,0.564l-0.459,-0l0,-1.7l0.588,0c0.215,0 0.376,0.047 0.484,0.141c0.108,0.093 0.162,0.227 0.162,0.4Zm-0.775,0.22l0.084,0c0.069,0 0.124,-0.019 0.164,-0.058c0.041,-0.039 0.062,-0.092 0.062,-0.16c-0,-0.115 -0.064,-0.172 -0.191,-0.172l-0.119,-0l0,0.39Z" style="fill:#231f20;fill-rule:nonzero;"/></g></g><g><g><path d="M18.96,14.125l-0,0.619l-0.459,-0l-0,-1.7l0.557,0c0.461,0 0.692,0.168 0.692,0.502c0,0.197 -0.096,0.349 -0.287,0.457l0.494,0.741l-0.521,-0l-0.36,-0.619l-0.116,0Zm-0,-0.345l0.086,-0c0.16,-0 0.241,-0.071 0.241,-0.213c-0,-0.117 -0.079,-0.176 -0.236,-0.176l-0.091,0l-0,0.389Z" style="fill:#231f20;fill-rule:nonzero;"/></g></g><g><g><path d="M21.378,14.744l-0.084,-0.319l-0.551,0l-0.087,0.319l-0.504,-0l0.554,-1.707l0.613,0l0.561,1.707l-0.502,-0Zm-0.179,-0.696l-0.073,-0.278c-0.017,-0.062 -0.038,-0.143 -0.063,-0.241c-0.024,-0.098 -0.04,-0.169 -0.047,-0.211c-0.008,0.039 -0.022,0.104 -0.042,0.195c-0.021,0.091 -0.066,0.269 -0.136,0.535l0.361,0Z" style="fill:#231f20;fill-rule:nonzero;"/></g></g><g><g><path d="M22.894,13.674l0.293,-0.63l0.498,0l-0.56,1.036l0,0.664l-0.463,-0l0,-0.65l-0.559,-1.05l0.5,0l0.291,0.63Z" style="fill:#231f20;fill-rule:nonzero;"/></g></g><g><g><path d="M25.1,14.744l-1.009,-0l-0,-1.7l1.009,0l0,0.369l-0.55,-0l0,0.267l0.509,-0l0,0.368l-0.509,0l0,0.322l0.55,-0l0,0.374Z" style="fill:#231f20;fill-rule:nonzero;"/></g></g><g><g><path d="M26.08,14.125l0,0.619l-0.459,-0l-0,-1.7l0.557,0c0.462,0 0.693,0.168 0.693,0.502c-0,0.197 -0.096,0.349 -0.288,0.457l0.495,0.741l-0.521,-0l-0.361,-0.619l-0.116,0Zm0,-0.345l0.086,-0c0.161,-0 0.241,-0.071 0.241,-0.213c-0,-0.117 -0.079,-0.176 -0.236,-0.176l-0.091,0l0,0.389Z" style="fill:#231f20;fill-rule:nonzero;"/></g></g><g><g><path d="M28.567,14.227c0,0.106 -0.027,0.2 -0.081,0.282c-0.053,0.081 -0.13,0.145 -0.231,0.19c-0.101,0.045 -0.219,0.068 -0.354,0.068c-0.113,0 -0.208,-0.008 -0.285,-0.023c-0.077,-0.017 -0.157,-0.044 -0.24,-0.084l0,-0.409c0.088,0.045 0.179,0.08 0.273,0.105c0.095,0.025 0.182,0.037 0.261,0.037c0.068,0 0.118,-0.012 0.15,-0.035c0.032,-0.024 0.048,-0.054 0.048,-0.091c-0,-0.024 -0.007,-0.044 -0.019,-0.061c-0.013,-0.017 -0.034,-0.035 -0.062,-0.052c-0.029,-0.019 -0.104,-0.055 -0.226,-0.11c-0.111,-0.05 -0.194,-0.099 -0.25,-0.146c-0.055,-0.048 -0.096,-0.102 -0.123,-0.164c-0.027,-0.061 -0.04,-0.133 -0.04,-0.217c0,-0.156 0.057,-0.278 0.171,-0.365c0.114,-0.088 0.271,-0.132 0.47,-0.132c0.176,-0 0.355,0.041 0.538,0.122l-0.141,0.354c-0.159,-0.073 -0.296,-0.109 -0.412,-0.109c-0.059,-0 -0.102,0.01 -0.129,0.031c-0.028,0.022 -0.041,0.048 -0.041,0.078c-0,0.034 0.017,0.064 0.051,0.09c0.035,0.026 0.128,0.074 0.281,0.144c0.146,0.066 0.248,0.137 0.305,0.212c0.057,0.076 0.086,0.171 0.086,0.285Z" style="fill:#231f20;fill-rule:nonzero;"/></g></g><g><g><path d="M30.108,14.415l-0.175,0l-0.069,0.329l-0.438,-0l0.07,-0.329l-0.638,0l0.06,-0.298l0.885,-1.073l0.419,0l-0.217,1.028l0.173,-0l-0.07,0.343Zm-0.541,-0.343l0.057,-0.226c0.022,-0.083 0.045,-0.165 0.07,-0.245l-0.01,-0c-0.04,0.075 -0.084,0.141 -0.133,0.2l-0.227,0.271l0.243,-0Z" style="fill:#f68712;fill-rule:nonzero;"/></g></g><g><g><path d="M31.265,13.674l0.293,-0.63l0.497,0l-0.559,1.036l0,0.664l-0.463,-0l0,-0.65l-0.559,-1.05l0.5,0l0.291,0.63Z" style="fill:#231f20;fill-rule:nonzero;"/></g></g><g><g><path d="M34.052,13.891c-0,0.287 -0.07,0.504 -0.211,0.653c-0.14,0.149 -0.345,0.223 -0.615,0.223c-0.267,0 -0.472,-0.074 -0.614,-0.224c-0.142,-0.15 -0.213,-0.368 -0.213,-0.654c0,-0.283 0.071,-0.499 0.212,-0.648c0.142,-0.149 0.347,-0.224 0.617,-0.224c0.27,0 0.475,0.074 0.614,0.223c0.14,0.147 0.21,0.364 0.21,0.651Zm-1.169,0c-0,0.329 0.114,0.493 0.343,0.493c0.116,0 0.202,-0.04 0.259,-0.12c0.056,-0.08 0.084,-0.204 0.084,-0.373c-0,-0.169 -0.029,-0.294 -0.086,-0.375c-0.057,-0.081 -0.142,-0.122 -0.255,-0.122c-0.23,-0 -0.345,0.166 -0.345,0.497Z" style="fill:#231f20;fill-rule:nonzero;"/></g></g><g><g><path d="M36.027,13.044l-0,1.023c-0,0.223 -0.063,0.395 -0.189,0.517c-0.126,0.122 -0.307,0.183 -0.545,0.183c-0.231,0 -0.41,-0.059 -0.534,-0.178c-0.124,-0.118 -0.186,-0.289 -0.186,-0.512l-0,-1.033l0.462,0l-0,0.997c-0,0.121 0.022,0.208 0.067,0.262c0.045,0.054 0.111,0.081 0.199,0.081c0.093,0 0.161,-0.027 0.203,-0.081c0.042,-0.053 0.064,-0.141 0.064,-0.264l-0,-0.995l0.459,0Z" style="fill:#231f20;fill-rule:nonzero;"/></g></g></g></svg>