<?xml version="1.0" encoding="UTF-8" standalone="no"?><!DOCTYPE svg PUBLIC "-//W3C//DTD SVG 1.1//EN" "http://www.w3.org/Graphics/SVG/1.1/DTD/svg11.dtd"><svg width="100%" height="100%" viewBox="0 0 9 8" version="1.1" xmlns="http://www.w3.org/2000/svg" xmlns:xlink="http://www.w3.org/1999/xlink" xml:space="preserve" xmlns:serif="http://www.serif.com/" style="fill-rule:evenodd;clip-rule:evenodd;stroke-linejoin:round;stroke-miterlimit:2;"><g><path d="M4.259,3.903c-0.04,-0.041 -0.08,-0.083 -0.118,-0.126c0.038,0.043 0.078,0.085 0.118,0.126" style="fill:#40b93c;fill-rule:nonzero;"/><path d="M4.146,3.92c0.037,-0.052 0.074,-0.106 0.108,-0.16c-0.034,0.054 -0.071,0.108 -0.108,0.16" style="fill:#40b93c;fill-rule:nonzero;"/><path d="M4.329,3.679c-0.08,0.112 -0.166,0.22 -0.258,0.322c0.092,-0.102 0.178,-0.21 0.258,-0.322" style="fill:#40b93c;fill-rule:nonzero;"/><path d="M4.471,0.096c-2.004,-0 -3.629,1.625 -3.629,3.63c-0,0.932 0.351,1.782 0.928,2.425l0.967,-0.943l0.589,0.568l2.396,-3.143l1.814,3.038c0.357,-0.562 0.565,-1.229 0.565,-1.945c0,-2.005 -1.625,-3.63 -3.63,-3.63" style="fill:#f68712;fill-rule:nonzero;"/><path d="M5.722,2.633l-2.396,3.143l-0.589,-0.568l-0.967,0.943l-1.471,1.433l1.934,-0.872l0.049,-0.091l0.56,-1.045l0.967,1.252l1.009,-1.956l0.347,1.03l0.61,-2.512l1.395,2.764c0.135,-0.15 0.257,-0.312 0.366,-0.483l-1.814,-3.038" style="fill:#231f20;fill-rule:nonzero;"/><path d="M4.445,5.243l-0,-3.368l-0.458,0l-0,3.368l0.458,-0" style="fill:#231f20;fill-rule:nonzero;"/><path d="M5.164,2.627l-1.929,0l-0,0.458l1.929,-0l-0,-0.458" style="fill:#231f20;fill-rule:nonzero;"/></g></svg>